<svg xmlns="http://www.w3.org/2000/svg" xmlns:xlink="http://www.w3.org/1999/xlink" width="476" height="534" viewBox="0 0 476 534">
  <defs>
    <clipPath id="clip-path">
      <rect id="Rectangle_18589" data-name="Rectangle 18589" width="476" height="534" transform="translate(795 122)" fill="#fff" stroke="#707070" stroke-width="1"/>
    </clipPath>
  </defs>
  <g id="man_woman_handshaking_banner" transform="translate(-795 -122)" clip-path="url(#clip-path)">
    <g id="Transform" transform="translate(-18.602 -17.221)">
      <g id="Group_24529" data-name="Group 24529" transform="translate(911.545 163.221)">
        <g id="Group_24524" data-name="Group 24524" transform="translate(28.889 42.593)">
          <g id="Group_24523" data-name="Group 24523" transform="translate(0 0)">
            <g id="Rectangle_17893" data-name="Rectangle 17893" transform="translate(0 14.462)" fill="none" stroke="#cedbf3" stroke-linecap="round" stroke-width="8" opacity="0.5">
              <rect width="304.47" height="412.557" rx="12" stroke="none"/>
              <rect x="4" y="4" width="296.47" height="404.557" rx="8" fill="none"/>
            </g>
            <rect id="Rectangle_17894" data-name="Rectangle 17894" width="106.565" height="28.925" rx="4" transform="translate(98.953)" fill="#cedbf3"/>
          </g>
          <g id="Group_24522" data-name="Group 24522" transform="translate(33.492 74.976)">
            <line id="Line_158" data-name="Line 158" x2="237.487" transform="translate(0.381)" fill="none" stroke="#e7edf9" stroke-linecap="round" stroke-width="4"/>
            <line id="Line_159" data-name="Line 159" x2="237.487" transform="translate(0.381 21.313)" fill="none" stroke="#e7edf9" stroke-linecap="round" stroke-width="4"/>
            <line id="Line_160" data-name="Line 160" x2="237.487" transform="translate(0.381 42.626)" fill="none" stroke="#e7edf9" stroke-linecap="round" stroke-width="4"/>
            <line id="Line_161" data-name="Line 161" x2="237.487" transform="translate(0.381 63.939)" fill="none" stroke="#e7edf9" stroke-linecap="round" stroke-width="4"/>
            <line id="Line_162" data-name="Line 162" x2="237.487" transform="translate(0.381 85.252)" fill="none" stroke="#e7edf9" stroke-linecap="round" stroke-width="4"/>
            <line id="Line_163" data-name="Line 163" x2="237.487" transform="translate(0.381 106.565)" fill="none" stroke="#e7edf9" stroke-linecap="round" stroke-width="4"/>
            <line id="Line_164" data-name="Line 164" x2="237.487" transform="translate(0.381 127.877)" fill="none" stroke="#e7edf9" stroke-linecap="round" stroke-width="4"/>
            <line id="Line_165" data-name="Line 165" x2="237.487" transform="translate(0.381 149.19)" fill="none" stroke="#e7edf9" stroke-linecap="round" stroke-width="4"/>
            <line id="Line_166" data-name="Line 166" x2="237.487" transform="translate(0.381 170.503)" fill="none" stroke="#e7edf9" stroke-linecap="round" stroke-width="4"/>
            <line id="Line_167" data-name="Line 167" x2="237.487" transform="translate(0.381 191.816)" fill="none" stroke="#e7edf9" stroke-linecap="round" stroke-width="4"/>
            <line id="Line_168" data-name="Line 168" x2="237.487" transform="translate(0.381 213.129)" fill="none" stroke="#e7edf9" stroke-linecap="round" stroke-width="4"/>
            <line id="Line_169" data-name="Line 169" x2="237.487" transform="translate(0.381 234.442)" fill="none" stroke="#e7edf9" stroke-linecap="round" stroke-width="4"/>
            <line id="Line_170" data-name="Line 170" x2="237.487" transform="translate(0.381 255.755)" fill="none" stroke="#e7edf9" stroke-linecap="round" stroke-width="4"/>
            <line id="Line_171" data-name="Line 171" x2="237.487" transform="translate(0 277.068)" fill="none" stroke="#e7edf9" stroke-linecap="round" stroke-width="4"/>
            <line id="Line_172" data-name="Line 172" x2="237.487" transform="translate(0 277.068)" fill="none" stroke="#e7edf9" stroke-linecap="round" stroke-width="4"/>
            <line id="Line_173" data-name="Line 173" x2="237.487" transform="translate(0 298.381)" fill="none" stroke="#e7edf9" stroke-linecap="round" stroke-width="4"/>
          </g>
        </g>
        <path id="Vector_14" data-name="Vector 14" d="M173.766,21.17C100.615-17.171,27.579,5.195.205,21.17-3.988,127.778,57.088,179.757,88.151,192.42,164.565,153.144,177.068,61.888,173.766,21.17Z" transform="translate(0 0)" fill="#e7edf9" stroke="#cedbf3" stroke-width="8"/>
        <g id="Group_24531" data-name="Group 24531" transform="translate(61.111 60.354)">
          <circle id="Ellipse_1348" data-name="Ellipse 1348" cx="26.007" cy="26.007" r="26.007" transform="translate(0)" fill="#6c92da"/>
          <path id="Vector_15_Stroke_" data-name="Vector 15 (Stroke)" d="M37.159.513a1.84,1.84,0,0,1,.053,2.6l-22.083,23a1.84,1.84,0,0,1-2.6.052L.565,14.668a1.84,1.84,0,0,1,2.551-2.653L13.75,22.24,34.557.566A1.84,1.84,0,0,1,37.159.513Z" transform="translate(7.145 12.666)" fill="#e7edf9" fill-rule="evenodd"/>
        </g>
      </g>
      <g id="Transform-2" data-name="Transform" transform="translate(857.602 275.91)">
        <path id="Path_18894" data-name="Path 18894" d="M617.59,547.922a8.085,8.085,0,0,1,.813.98l38.083-.932,4.443-8.118,13.128,5.1-6.468,15.136a6.145,6.145,0,0,1-6.388,3.686l-43.027-5.2a8.063,8.063,0,1,1-.584-10.658Z" transform="translate(-444.192 -418.485)" fill="#ffb7b7"/>
        <path id="Path_18895" data-name="Path 18895" d="M523.411,703.748H510.889l-5.957-48.3h18.481Z" transform="translate(-225.868 -343.031)" fill="#ffb7b7"/>
        <path id="Path_18896" data-name="Path 18896" d="M752.246,808.426H711.87v-.51A15.716,15.716,0,0,1,727.584,792.2h24.662Z" transform="translate(-451.509 -435.57)" fill="#2f2e41"/>
        <path id="Path_18897" data-name="Path 18897" d="M401.956,703.205l-11.515-4.92,13.495-46.757,16.995,7.261Z" transform="translate(-218.116 -342.766)" fill="#ffb7b7"/>
        <path id="Path_18898" data-name="Path 18898" d="M625.132,807.725,588,791.863l.2-.47a15.716,15.716,0,0,1,20.625-8.279h0l22.677,9.688Z" transform="translate(-443.123 -434.869)" fill="#2f2e41"/>
        <path id="Path_18899" data-name="Path 18899" d="M459.4,470.27l-.906,14.673,26.469,2.832,27.695,2.964-8.152-22.281Z" transform="translate(-222.724 -330.371)" fill="#ffb7b7"/>
        <path id="Path_18900" data-name="Path 18900" d="M683.855,569.521l-10.282-71.682L691.4,492l5.235-7.179,25.473,1.507,3.74,8.377,13.583,6.418-2.087,38.766,1.523,32.429Z" transform="translate(-448.916 -414.76)" fill="#2f2e41"/>
        <path id="Path_18901" data-name="Path 18901" d="M676.344,551.268l-18.128-7.253.077-.323c.078-.325,7.793-32.568,8.818-37.749,1.067-5.4,4.966-6.89,5.132-6.951l.121-.045,7.174,2.184,3.151,24.757Z" transform="translate(-447.877 -415.716)" fill="#2f2e41"/>
        <path id="Path_18902" data-name="Path 18902" d="M638.044,772.428l-24.131-4.95,38.569-106.425,13.2-36.3s8.372-29.105,12.155-40.369l2.283-15.113,54.038,5.981s15.093,22.165,10.508,58.292l2.074,135.789-24.132,1.238L702.393,633.621,666.918,708.7s-11.181,32.037-19.181,38.981Z" transform="translate(-444.877 -420.477)" fill="#2f2e41"/>
        <path id="Path_18903" data-name="Path 18903" d="M719.076,577.94a8.093,8.093,0,0,1,1.271.07l25.21-28.56-2.932-8.778,12.669-6.157,6.7,15.034a6.145,6.145,0,0,1-1.64,7.19l-33.066,28.017a8.063,8.063,0,1,1-8.213-6.818Z" transform="translate(-451.468 -418.124)" fill="#ffb7b7"/>
        <path id="Path_18904" data-name="Path 18904" d="M745.126,550.048,734.61,525.312l4.1-17.23,4.419-5.583a2.546,2.546,0,0,1,2.045.019c1.63.656,3.018,2.666,4.125,5.976l9.855,28.072Z" transform="translate(-453.049 -415.943)" fill="#2f2e41"/>
        <path id="Path_18905" data-name="Path 18905" d="M687.367,471.818V453.169a24.99,24.99,0,1,1,49.979,0v18.649a3.361,3.361,0,0,1-3.357,3.357H690.724a3.36,3.36,0,0,1-3.357-3.357Z" transform="translate(-449.85 -410.925)" fill="#2f2e41"/>
        <circle id="Ellipse_1353" data-name="Ellipse 1353" cx="18.322" cy="18.322" r="18.322" transform="translate(239.05 27.173)" fill="#ffb7b7"/>
        <path id="Path_18906" data-name="Path 18906" d="M681.026,455.148a19.79,19.79,0,0,1,19.768-19.768h3.73a19.79,19.79,0,0,1,19.768,19.768v.373h-7.882l-2.688-7.528-.538,7.528H709.11l-1.356-3.8-.271,3.8H681.026Z" transform="translate(-449.421 -411.412)" fill="#2f2e41"/>
        <path id="Path_18907" data-name="Path 18907" d="M706.683,478.36a3.307,3.307,0,0,1-.263-3.511c3.953-7.518,9.487-21.409,2.141-29.976l-.528-.616h21.325v32.016l-19.372,3.418a3.435,3.435,0,0,1-.594.052,3.343,3.343,0,0,1-2.709-1.384Z" transform="translate(-451.114 -412.013)" fill="#2f2e41"/>
        <path id="Path_18908" data-name="Path 18908" d="M212.9,692.77l11.316,4.044,20.985-41.725-16.7-5.969Z" transform="translate(-206.096 -342.603)" fill="#9f616a"/>
        <path id="Path_18909" data-name="Path 18909" d="M432.6,794.864l5.241-14.665,22.286,7.965a15.1,15.1,0,0,1,9.127,19.279l-.165.461Z" transform="translate(-432.602 -434.758)" fill="#2f2e41"/>
        <path id="Path_18910" data-name="Path 18910" d="M291.836,704.58h12.017l5.718-46.353H291.834Z" transform="translate(-211.44 -343.219)" fill="#9f616a"/>
        <path id="Path_18911" data-name="Path 18911" d="M515.548,793.066h23.668A15.082,15.082,0,0,1,554.3,808.147v.49h-38.75Z" transform="translate(-438.218 -435.629)" fill="#2f2e41"/>
        <path id="Path_18912" data-name="Path 18912" d="M489.459,478.879l5.226-10.327s19.47,4.878,21.24,16.162Z" transform="translate(-436.451 -413.658)" fill="#f1f1f1"/>
        <path id="Path_18913" data-name="Path 18913" d="M237.619,516.818l14.213,79.314-37.739,66.741,22.546,8.822,38.23-64.7,4.9-17.645,2.94,92.143,20.333-.617,9.322-86.039-14.952-79.985Z" transform="translate(-206.177 -333.513)" fill="#2f2e41"/>
        <path id="Path_18914" data-name="Path 18914" d="M492.731,616.016c-20.88,0-34.137-3.994-34.434-4.057l-.481-.1,10.876-50.424.49-46.512c0-19.71,12.972-34.241,14.773-35.582a8.48,8.48,0,0,1,4.51-5.543c4.327-1.963,9.615.392,9.837.494l15.871,5.95.075.22c.191.564,21.1,69.189,21.1,69.189s-1.265,59.961-1.706,61.925C533.636,611.574,504.333,616.016,492.731,616.016Z" transform="translate(-434.309 -413.96)" fill="#3f3d56"/>
        <circle id="Ellipse_1354" data-name="Ellipse 1354" cx="21.45" cy="21.45" r="21.45" transform="translate(53.017 8.741)" fill="#9f616a"/>
        <path id="Path_18915" data-name="Path 18915" d="M259.823,432.715l37.528,52.36,5.542-24.451Z" transform="translate(-209.273 -327.951)" opacity="0.2"/>
        <path id="Path_18916" data-name="Path 18916" d="M609.674,559.055a9.205,9.205,0,0,1-13.821-2.865l-32.3,5.17,7-15.492,29.6-2.535a9.255,9.255,0,0,1,9.524,15.722Z" transform="translate(-441.468 -418.665)" fill="#9f616a"/>
        <path id="Path_18917" data-name="Path 18917" d="M345.842,455.755l11.606-1.138,3.216,16.19-14.6.258Z" transform="translate(-215.097 -329.434)" fill="#f1f1f1"/>
        <path id="Path_18918" data-name="Path 18918" d="M576.8,562.266,519.96,557.2l-28.7-45.645-.088-.4a15.714,15.714,0,0,1,29.336-10.522L537.354,533.5l34,5.14Z" transform="translate(-436.543 -415.251)" fill="#3f3d56"/>
        <path id="Path_18919" data-name="Path 18919" d="M492.513,458.487l17.8.639c1.085.039,4.031-11.673,4.416-14.1a6.631,6.631,0,0,1,6.917-5.364c1.333.126,4.693-2.364,8.161-5.312,6.584-5.6,6.241-16.11-.991-20.84q-.3-.194-.582-.354c-4.563-2.554-9.9-3.411-15.128-3.477-4.74-.059-9.613.537-13.789,2.781-7.486,4.022-11.469,12.811-11.819,21.3s2.372,16.793,5.461,24.709" transform="translate(-436.317 -409.672)" fill="#2f2e41"/>
      </g>
    </g>
  </g>
</svg>
